<svg xmlns="http://www.w3.org/2000/svg" viewBox="0 0 640 640"><path d="M554.718 138.222c-3.357-3.32-7.207-5.222-11.997-5.222H97.28c-4.79 0-8.64 1.903-11.997 5.222-3.357 3.32-5.282 7.125-5.282 11.861v33.702c0 4.736 1.925 8.542 5.282 11.86 3.357 3.32 7.207 5.223 11.997 5.223H542.72c4.79 0 8.64-1.903 11.997-5.222 3.357-3.32 5.282-7.125 5.282-11.861v-33.702c0-4.736-1.925-8.541-5.282-11.86Zm-51 101c-3.357-3.32-7.207-5.222-11.997-5.222h-342.71c-4.812 0-8.64 1.903-11.997 5.222-3.357 3.32-5.282 7.125-5.282 11.861v33.702c0 4.757 1.925 8.542 5.282 11.86 3.357 3.32 7.185 5.223 11.997 5.223h342.71c4.79 0 8.64-1.903 11.997-5.222 3.357-3.32 5.282-7.104 5.282-11.861v-33.702c0-4.736-1.925-8.541-5.282-11.86ZM525.721 336H114.366c-4.79 0-8.64 1.903-11.997 5.222-3.357 3.32-5.282 7.125-5.282 11.861v33.702c0 4.736 1.925 8.542 5.282 11.86 3.358 3.32 7.207 5.223 11.997 5.223H525.72c4.79 0 8.64-1.903 11.997-5.222 3.357-3.32 5.282-7.125 5.282-11.861v-33.702c0-4.736-1.925-8.541-5.282-11.86-3.357-3.32-7.207-5.223-11.997-5.223Zm-52 102.021H165.076c-4.32 0-8.639 1.882-11.996 5.222-3.358 3.32-4.79 7.104-4.79 11.862v33.68c0 4.757 1.432 8.542 4.79 11.86 3.357 3.341 7.677 5.223 11.996 5.223h308.645c4.79 0 8.64-1.882 11.997-5.222 3.357-3.32 5.282-7.104 5.282-11.861v-33.68c0-4.758-1.925-8.542-5.282-11.862-3.357-3.34-7.207-5.222-11.997-5.222Z" fill="#000000" fill-rule="nonzero"/></svg>
